
<?xml version="1.0" standalone="no"?><!DOCTYPE svg PUBLIC "-//W3C//DTD SVG 1.1//EN" "http://www.w3.org/Graphics/SVG/1.1/DTD/svg11.dtd"><svg t="1690328792051" class="icon" viewBox="0 0 1024 1024" version="1.1" xmlns="http://www.w3.org/2000/svg" p-id="28093" xmlns:xlink="http://www.w3.org/1999/xlink" width="64" height="64"><path d="M2.11134 528.986692h261.230366v230.392002H2.11134z m770.927085 0h248.466355v230.392002H773.038425zM2.11134 264.493346h488.519338v221.914652H2.11134zM773.038425 221.786692h248.466355V96.129959A95.970009 95.970009 0 0 0 925.82268 0H773.038425z m-240.020993 42.706654h488.487348v221.914652h-488.487348z m-227.288972 264.493346h424.795251v230.392002H305.72846z m186.981568 273.098656H2.14333v125.752703a95.970009 95.970009 0 0 0 95.74608 96.161949h394.852608z m-229.368322-580.298656V0H97.69747A95.938019 95.938019 0 0 0 2.01537 96.129959v125.656733z m271.755076 580.298656v221.914652h390.789878a95.906029 95.906029 0 0 0 95.6821-96.129959v-125.784693zM305.72846 0h424.795251v221.914652H305.72846z" fill="#e89abe" p-id="28094"></path></svg>
